<svg width="117" height="34" viewBox="0 0 117 34" fill="none" xmlns="http://www.w3.org/2000/svg">
<g clip-path="url(#clip0_16_552)">
<path d="M81.3397 0H76.1748V2.37351H81.3397V0Z" fill="#56C3F1"/>
<path d="M81.3397 15.8089H76.1748V18.1824H81.3397V15.8089Z" fill="#EB6100"/>
<path d="M84.4869 7.94364H79.3219V10.3172H84.4869V7.94364Z" fill="#FFE200"/>
<path d="M84.4869 23.7525H79.3219V26.126H84.4869V23.7525Z" fill="#DBE000"/>
<path d="M3.03333 0.0130653H0V34.0044H3.03333V0.0130653Z" fill="white"/>
<path d="M22.8091 34H20.7125L11.5906 9.00628V34H8.73232V0.0130653H10.9997L19.9508 24.5756V0.0130653H22.8091" fill="white"/>
<path d="M40.033 2.68272H34.7498V34H31.7165V2.68272H26.3896V0.0130653H40.033" fill="white"/>
<path d="M54.8101 34H43.5916V0.0130653H54.6788V2.68272H46.6249V15.369H53.9609V18.0822H46.6249V31.3303H54.8101" fill="white"/>
<path d="M87.4546 34H70.9003L64.5492 15.8002L64.965 15.1948H70.3795V2.68272H62.5882V34H59.5549V0.0130653H70.9923C71.7057 0.0130653 72.2879 0.235174 72.7387 0.688101C73.1896 1.13667 73.4172 1.7159 73.4172 2.42577V15.3255C73.4172 16.963 72.3098 17.7817 70.0993 17.7817C69.8849 17.7817 69.561 17.773 69.1407 17.7469C68.7205 17.7251 68.4141 17.7164 68.2259 17.7164C69.9024 22.3328 73.2377 31.6221 73.2377 31.6221H87.3933" fill="white"/>
<path d="M87.3801 31.6134V0.0130653H98.3798V2.68272H90.4135V15.5868H97.7451V18.3H90.4135V34H87.3801H87.297" fill="white"/>
<path d="M117 31.5916C117 32.3015 116.768 32.8807 116.313 33.3293C115.853 33.7779 115.267 34.0044 114.558 34.0044H104.994C104.28 34.0044 103.698 33.7779 103.247 33.3293C102.796 32.8807 102.569 32.3015 102.569 31.5916V2.42577C102.569 1.7159 102.796 1.13667 103.247 0.688101C103.698 0.239529 104.28 0.0130653 104.994 0.0130653H114.558C115.267 0.0130653 115.853 0.235174 116.313 0.688101C116.772 1.13667 117 1.7159 117 2.42577M113.967 2.68708H105.606V31.3347H113.967V2.68272V2.68708Z" fill="white"/>
</g>
<defs>
<clipPath id="clip0_16_552">
<rect width="117" height="34" fill="white"/>
</clipPath>
</defs>
</svg>
